<mxfile host="app.diagrams.net" modified="2023-04-19T09:15:37.161Z" agent="Mozilla/5.0 (Macintosh; Intel Mac OS X 10_15_7) AppleWebKit/537.36 (KHTML, like Gecko) Chrome/112.0.0.0 Safari/537.36" etag="hOpCaIWG6kxW903s6bHq" version="21.1.7" type="github">
  <diagram name="Page-1" id="ZVpAs-4wmjEy2bpQbKNT">
    <mxGraphModel dx="1306" dy="773" grid="1" gridSize="10" guides="1" tooltips="1" connect="1" arrows="1" fold="1" page="1" pageScale="1" pageWidth="850" pageHeight="1100" math="0" shadow="0">
      <root>
        <mxCell id="0" />
        <mxCell id="1" parent="0" />
        <mxCell id="qJbakIfHmFBiQNTWDLgG-1" value="" style="shape=table;startSize=0;container=1;collapsible=0;childLayout=tableLayout;fontSize=16;" vertex="1" parent="1">
          <mxGeometry x="170" y="170" width="450" height="80" as="geometry" />
        </mxCell>
        <mxCell id="qJbakIfHmFBiQNTWDLgG-2" value="" style="shape=tableRow;horizontal=0;startSize=0;swimlaneHead=0;swimlaneBody=0;strokeColor=inherit;top=0;left=0;bottom=0;right=0;collapsible=0;dropTarget=0;fillColor=none;points=[[0,0.5],[1,0.5]];portConstraint=eastwest;fontSize=16;" vertex="1" parent="qJbakIfHmFBiQNTWDLgG-1">
          <mxGeometry width="450" height="40" as="geometry" />
        </mxCell>
        <mxCell id="qJbakIfHmFBiQNTWDLgG-3" value="name" style="shape=partialRectangle;html=1;whiteSpace=wrap;connectable=0;strokeColor=inherit;overflow=hidden;fillColor=none;top=0;left=0;bottom=0;right=0;pointerEvents=1;fontSize=16;" vertex="1" parent="qJbakIfHmFBiQNTWDLgG-2">
          <mxGeometry width="230" height="40" as="geometry">
            <mxRectangle width="230" height="40" as="alternateBounds" />
          </mxGeometry>
        </mxCell>
        <mxCell id="qJbakIfHmFBiQNTWDLgG-4" value="value" style="shape=partialRectangle;html=1;whiteSpace=wrap;connectable=0;strokeColor=inherit;overflow=hidden;fillColor=none;top=0;left=0;bottom=0;right=0;pointerEvents=1;fontSize=16;" vertex="1" parent="qJbakIfHmFBiQNTWDLgG-2">
          <mxGeometry x="230" width="220" height="40" as="geometry">
            <mxRectangle width="220" height="40" as="alternateBounds" />
          </mxGeometry>
        </mxCell>
        <mxCell id="qJbakIfHmFBiQNTWDLgG-6" value="" style="shape=tableRow;horizontal=0;startSize=0;swimlaneHead=0;swimlaneBody=0;strokeColor=inherit;top=0;left=0;bottom=0;right=0;collapsible=0;dropTarget=0;fillColor=none;points=[[0,0.5],[1,0.5]];portConstraint=eastwest;fontSize=16;" vertex="1" parent="qJbakIfHmFBiQNTWDLgG-1">
          <mxGeometry y="40" width="450" height="40" as="geometry" />
        </mxCell>
        <mxCell id="qJbakIfHmFBiQNTWDLgG-7" value="writeString(Class. getName())" style="shape=partialRectangle;html=1;whiteSpace=wrap;connectable=0;strokeColor=inherit;overflow=hidden;fillColor=none;top=0;left=0;bottom=0;right=0;pointerEvents=1;fontSize=16;" vertex="1" parent="qJbakIfHmFBiQNTWDLgG-6">
          <mxGeometry width="230" height="40" as="geometry">
            <mxRectangle width="230" height="40" as="alternateBounds" />
          </mxGeometry>
        </mxCell>
        <mxCell id="qJbakIfHmFBiQNTWDLgG-8" value="Parcelable.writeToParcel()" style="shape=partialRectangle;html=1;whiteSpace=wrap;connectable=0;strokeColor=inherit;overflow=hidden;fillColor=none;top=0;left=0;bottom=0;right=0;pointerEvents=1;fontSize=16;" vertex="1" parent="qJbakIfHmFBiQNTWDLgG-6">
          <mxGeometry x="230" width="220" height="40" as="geometry">
            <mxRectangle width="220" height="40" as="alternateBounds" />
          </mxGeometry>
        </mxCell>
        <mxCell id="qJbakIfHmFBiQNTWDLgG-14" value="&lt;font style=&quot;font-size: 14px;&quot;&gt;writeParcelable&lt;/font&gt;" style="text;html=1;strokeColor=none;fillColor=none;align=center;verticalAlign=middle;whiteSpace=wrap;rounded=0;" vertex="1" parent="1">
          <mxGeometry x="360" y="130" width="60" height="30" as="geometry" />
        </mxCell>
        <mxCell id="qJbakIfHmFBiQNTWDLgG-15" value="" style="shape=table;startSize=0;container=1;collapsible=0;childLayout=tableLayout;fontSize=16;" vertex="1" parent="1">
          <mxGeometry x="110" y="330" width="570" height="80" as="geometry" />
        </mxCell>
        <mxCell id="qJbakIfHmFBiQNTWDLgG-16" value="" style="shape=tableRow;horizontal=0;startSize=0;swimlaneHead=0;swimlaneBody=0;strokeColor=inherit;top=0;left=0;bottom=0;right=0;collapsible=0;dropTarget=0;fillColor=none;points=[[0,0.5],[1,0.5]];portConstraint=eastwest;fontSize=16;" vertex="1" parent="qJbakIfHmFBiQNTWDLgG-15">
          <mxGeometry width="570" height="40" as="geometry" />
        </mxCell>
        <mxCell id="qJbakIfHmFBiQNTWDLgG-17" value="N" style="shape=partialRectangle;html=1;whiteSpace=wrap;connectable=0;strokeColor=inherit;overflow=hidden;fillColor=none;top=0;left=0;bottom=0;right=0;pointerEvents=1;fontSize=16;" vertex="1" parent="qJbakIfHmFBiQNTWDLgG-16">
          <mxGeometry width="230" height="40" as="geometry">
            <mxRectangle width="230" height="40" as="alternateBounds" />
          </mxGeometry>
        </mxCell>
        <mxCell id="qJbakIfHmFBiQNTWDLgG-18" value="parcel" style="shape=partialRectangle;html=1;whiteSpace=wrap;connectable=0;strokeColor=inherit;overflow=hidden;fillColor=none;top=0;left=0;bottom=0;right=0;pointerEvents=1;fontSize=16;" vertex="1" parent="qJbakIfHmFBiQNTWDLgG-16">
          <mxGeometry x="230" width="170" height="40" as="geometry">
            <mxRectangle width="170" height="40" as="alternateBounds" />
          </mxGeometry>
        </mxCell>
        <mxCell id="qJbakIfHmFBiQNTWDLgG-28" style="shape=partialRectangle;html=1;whiteSpace=wrap;connectable=0;strokeColor=inherit;overflow=hidden;fillColor=none;top=0;left=0;bottom=0;right=0;pointerEvents=1;fontSize=16;" vertex="1" parent="qJbakIfHmFBiQNTWDLgG-16">
          <mxGeometry x="400" width="170" height="40" as="geometry">
            <mxRectangle width="170" height="40" as="alternateBounds" />
          </mxGeometry>
        </mxCell>
        <mxCell id="qJbakIfHmFBiQNTWDLgG-20" value="" style="shape=tableRow;horizontal=0;startSize=0;swimlaneHead=0;swimlaneBody=0;strokeColor=inherit;top=0;left=0;bottom=0;right=0;collapsible=0;dropTarget=0;fillColor=none;points=[[0,0.5],[1,0.5]];portConstraint=eastwest;fontSize=16;" vertex="1" parent="qJbakIfHmFBiQNTWDLgG-15">
          <mxGeometry y="40" width="570" height="40" as="geometry" />
        </mxCell>
        <mxCell id="qJbakIfHmFBiQNTWDLgG-21" value="writeInt(Array.length)" style="shape=partialRectangle;html=1;whiteSpace=wrap;connectable=0;strokeColor=inherit;overflow=hidden;fillColor=none;top=0;left=0;bottom=0;right=0;pointerEvents=1;fontSize=16;" vertex="1" parent="qJbakIfHmFBiQNTWDLgG-20">
          <mxGeometry width="230" height="40" as="geometry">
            <mxRectangle width="230" height="40" as="alternateBounds" />
          </mxGeometry>
        </mxCell>
        <mxCell id="qJbakIfHmFBiQNTWDLgG-22" value="writeParcelable" style="shape=partialRectangle;html=1;whiteSpace=wrap;connectable=0;strokeColor=inherit;overflow=hidden;fillColor=none;top=0;left=0;bottom=0;right=0;pointerEvents=1;fontSize=16;" vertex="1" parent="qJbakIfHmFBiQNTWDLgG-20">
          <mxGeometry x="230" width="170" height="40" as="geometry">
            <mxRectangle width="170" height="40" as="alternateBounds" />
          </mxGeometry>
        </mxCell>
        <mxCell id="qJbakIfHmFBiQNTWDLgG-29" value="..." style="shape=partialRectangle;html=1;whiteSpace=wrap;connectable=0;strokeColor=inherit;overflow=hidden;fillColor=none;top=0;left=0;bottom=0;right=0;pointerEvents=1;fontSize=16;" vertex="1" parent="qJbakIfHmFBiQNTWDLgG-20">
          <mxGeometry x="400" width="170" height="40" as="geometry">
            <mxRectangle width="170" height="40" as="alternateBounds" />
          </mxGeometry>
        </mxCell>
        <mxCell id="qJbakIfHmFBiQNTWDLgG-30" value="&lt;font style=&quot;font-size: 14px;&quot;&gt;writeParcelableArray&lt;/font&gt;" style="text;html=1;strokeColor=none;fillColor=none;align=center;verticalAlign=middle;whiteSpace=wrap;rounded=0;" vertex="1" parent="1">
          <mxGeometry x="360" y="290" width="60" height="30" as="geometry" />
        </mxCell>
        <mxCell id="qJbakIfHmFBiQNTWDLgG-31" value="" style="shape=table;startSize=0;container=1;collapsible=0;childLayout=tableLayout;fontSize=16;" vertex="1" parent="1">
          <mxGeometry x="220" y="490" width="350" height="80" as="geometry" />
        </mxCell>
        <mxCell id="qJbakIfHmFBiQNTWDLgG-32" value="" style="shape=tableRow;horizontal=0;startSize=0;swimlaneHead=0;swimlaneBody=0;strokeColor=inherit;top=0;left=0;bottom=0;right=0;collapsible=0;dropTarget=0;fillColor=none;points=[[0,0.5],[1,0.5]];portConstraint=eastwest;fontSize=16;" vertex="1" parent="qJbakIfHmFBiQNTWDLgG-31">
          <mxGeometry width="350" height="40" as="geometry" />
        </mxCell>
        <mxCell id="qJbakIfHmFBiQNTWDLgG-33" value="" style="shape=partialRectangle;html=1;whiteSpace=wrap;connectable=0;strokeColor=inherit;overflow=hidden;fillColor=none;top=0;left=0;bottom=0;right=0;pointerEvents=1;fontSize=16;" vertex="1" parent="qJbakIfHmFBiQNTWDLgG-32">
          <mxGeometry width="130" height="40" as="geometry">
            <mxRectangle width="130" height="40" as="alternateBounds" />
          </mxGeometry>
        </mxCell>
        <mxCell id="qJbakIfHmFBiQNTWDLgG-34" value="" style="shape=partialRectangle;html=1;whiteSpace=wrap;connectable=0;strokeColor=inherit;overflow=hidden;fillColor=none;top=0;left=0;bottom=0;right=0;pointerEvents=1;fontSize=16;" vertex="1" parent="qJbakIfHmFBiQNTWDLgG-32">
          <mxGeometry x="130" width="220" height="40" as="geometry">
            <mxRectangle width="220" height="40" as="alternateBounds" />
          </mxGeometry>
        </mxCell>
        <mxCell id="qJbakIfHmFBiQNTWDLgG-36" value="" style="shape=tableRow;horizontal=0;startSize=0;swimlaneHead=0;swimlaneBody=0;strokeColor=inherit;top=0;left=0;bottom=0;right=0;collapsible=0;dropTarget=0;fillColor=none;points=[[0,0.5],[1,0.5]];portConstraint=eastwest;fontSize=16;" vertex="1" parent="qJbakIfHmFBiQNTWDLgG-31">
          <mxGeometry y="40" width="350" height="40" as="geometry" />
        </mxCell>
        <mxCell id="qJbakIfHmFBiQNTWDLgG-37" value="writeInt(1)" style="shape=partialRectangle;html=1;whiteSpace=wrap;connectable=0;strokeColor=inherit;overflow=hidden;fillColor=none;top=0;left=0;bottom=0;right=0;pointerEvents=1;fontSize=16;" vertex="1" parent="qJbakIfHmFBiQNTWDLgG-36">
          <mxGeometry width="130" height="40" as="geometry">
            <mxRectangle width="130" height="40" as="alternateBounds" />
          </mxGeometry>
        </mxCell>
        <mxCell id="qJbakIfHmFBiQNTWDLgG-38" value="Parcelable.writeToParcel()" style="shape=partialRectangle;html=1;whiteSpace=wrap;connectable=0;strokeColor=inherit;overflow=hidden;fillColor=none;top=0;left=0;bottom=0;right=0;pointerEvents=1;fontSize=16;" vertex="1" parent="qJbakIfHmFBiQNTWDLgG-36">
          <mxGeometry x="130" width="220" height="40" as="geometry">
            <mxRectangle width="220" height="40" as="alternateBounds" />
          </mxGeometry>
        </mxCell>
        <mxCell id="qJbakIfHmFBiQNTWDLgG-44" value="" style="shape=table;startSize=0;container=1;collapsible=0;childLayout=tableLayout;fontSize=16;" vertex="1" parent="1">
          <mxGeometry x="110" y="650" width="570" height="80" as="geometry" />
        </mxCell>
        <mxCell id="qJbakIfHmFBiQNTWDLgG-45" value="" style="shape=tableRow;horizontal=0;startSize=0;swimlaneHead=0;swimlaneBody=0;strokeColor=inherit;top=0;left=0;bottom=0;right=0;collapsible=0;dropTarget=0;fillColor=none;points=[[0,0.5],[1,0.5]];portConstraint=eastwest;fontSize=16;" vertex="1" parent="qJbakIfHmFBiQNTWDLgG-44">
          <mxGeometry width="570" height="40" as="geometry" />
        </mxCell>
        <mxCell id="qJbakIfHmFBiQNTWDLgG-46" value="N" style="shape=partialRectangle;html=1;whiteSpace=wrap;connectable=0;strokeColor=inherit;overflow=hidden;fillColor=none;top=0;left=0;bottom=0;right=0;pointerEvents=1;fontSize=16;" vertex="1" parent="qJbakIfHmFBiQNTWDLgG-45">
          <mxGeometry width="230" height="40" as="geometry">
            <mxRectangle width="230" height="40" as="alternateBounds" />
          </mxGeometry>
        </mxCell>
        <mxCell id="qJbakIfHmFBiQNTWDLgG-47" value="parcel" style="shape=partialRectangle;html=1;whiteSpace=wrap;connectable=0;strokeColor=inherit;overflow=hidden;fillColor=none;top=0;left=0;bottom=0;right=0;pointerEvents=1;fontSize=16;" vertex="1" parent="qJbakIfHmFBiQNTWDLgG-45">
          <mxGeometry x="230" width="170" height="40" as="geometry">
            <mxRectangle width="170" height="40" as="alternateBounds" />
          </mxGeometry>
        </mxCell>
        <mxCell id="qJbakIfHmFBiQNTWDLgG-48" style="shape=partialRectangle;html=1;whiteSpace=wrap;connectable=0;strokeColor=inherit;overflow=hidden;fillColor=none;top=0;left=0;bottom=0;right=0;pointerEvents=1;fontSize=16;" vertex="1" parent="qJbakIfHmFBiQNTWDLgG-45">
          <mxGeometry x="400" width="170" height="40" as="geometry">
            <mxRectangle width="170" height="40" as="alternateBounds" />
          </mxGeometry>
        </mxCell>
        <mxCell id="qJbakIfHmFBiQNTWDLgG-49" value="" style="shape=tableRow;horizontal=0;startSize=0;swimlaneHead=0;swimlaneBody=0;strokeColor=inherit;top=0;left=0;bottom=0;right=0;collapsible=0;dropTarget=0;fillColor=none;points=[[0,0.5],[1,0.5]];portConstraint=eastwest;fontSize=16;" vertex="1" parent="qJbakIfHmFBiQNTWDLgG-44">
          <mxGeometry y="40" width="570" height="40" as="geometry" />
        </mxCell>
        <mxCell id="qJbakIfHmFBiQNTWDLgG-50" value="writeInt(Array.length)" style="shape=partialRectangle;html=1;whiteSpace=wrap;connectable=0;strokeColor=inherit;overflow=hidden;fillColor=none;top=0;left=0;bottom=0;right=0;pointerEvents=1;fontSize=16;" vertex="1" parent="qJbakIfHmFBiQNTWDLgG-49">
          <mxGeometry width="230" height="40" as="geometry">
            <mxRectangle width="230" height="40" as="alternateBounds" />
          </mxGeometry>
        </mxCell>
        <mxCell id="qJbakIfHmFBiQNTWDLgG-51" value="writeTypedObject" style="shape=partialRectangle;html=1;whiteSpace=wrap;connectable=0;strokeColor=inherit;overflow=hidden;fillColor=none;top=0;left=0;bottom=0;right=0;pointerEvents=1;fontSize=16;" vertex="1" parent="qJbakIfHmFBiQNTWDLgG-49">
          <mxGeometry x="230" width="170" height="40" as="geometry">
            <mxRectangle width="170" height="40" as="alternateBounds" />
          </mxGeometry>
        </mxCell>
        <mxCell id="qJbakIfHmFBiQNTWDLgG-52" value="..." style="shape=partialRectangle;html=1;whiteSpace=wrap;connectable=0;strokeColor=inherit;overflow=hidden;fillColor=none;top=0;left=0;bottom=0;right=0;pointerEvents=1;fontSize=16;" vertex="1" parent="qJbakIfHmFBiQNTWDLgG-49">
          <mxGeometry x="400" width="170" height="40" as="geometry">
            <mxRectangle width="170" height="40" as="alternateBounds" />
          </mxGeometry>
        </mxCell>
        <mxCell id="qJbakIfHmFBiQNTWDLgG-53" value="&lt;font style=&quot;font-size: 14px;&quot;&gt;writeTypedObject&lt;/font&gt;" style="text;html=1;strokeColor=none;fillColor=none;align=center;verticalAlign=middle;whiteSpace=wrap;rounded=0;" vertex="1" parent="1">
          <mxGeometry x="360" y="460" width="60" height="30" as="geometry" />
        </mxCell>
        <mxCell id="qJbakIfHmFBiQNTWDLgG-54" value="&lt;font style=&quot;&quot;&gt;&lt;font style=&quot;font-size: 14px;&quot;&gt;writeTypedArray&lt;br&gt;writeTypedList&lt;/font&gt;&lt;br&gt;&lt;/font&gt;" style="text;html=1;strokeColor=none;fillColor=none;align=center;verticalAlign=middle;whiteSpace=wrap;rounded=0;" vertex="1" parent="1">
          <mxGeometry x="360" y="610" width="60" height="30" as="geometry" />
        </mxCell>
        <mxCell id="qJbakIfHmFBiQNTWDLgG-55" value="&lt;font style=&quot;font-size: 14px;&quot;&gt;&lt;br&gt;writeTypedArrayMap&lt;br&gt;&lt;/font&gt;&lt;div&gt;&lt;font style=&quot;font-size: 14px;&quot;&gt;Added in API level 29&lt;/font&gt;&lt;/div&gt;" style="text;html=1;strokeColor=none;fillColor=none;align=center;verticalAlign=middle;whiteSpace=wrap;rounded=0;" vertex="1" parent="1">
          <mxGeometry x="315" y="760" width="160" height="30" as="geometry" />
        </mxCell>
        <mxCell id="qJbakIfHmFBiQNTWDLgG-56" value="" style="shape=table;startSize=0;container=1;collapsible=0;childLayout=tableLayout;fontSize=16;" vertex="1" parent="1">
          <mxGeometry x="25" y="800" width="740" height="80" as="geometry" />
        </mxCell>
        <mxCell id="qJbakIfHmFBiQNTWDLgG-57" value="" style="shape=tableRow;horizontal=0;startSize=0;swimlaneHead=0;swimlaneBody=0;strokeColor=inherit;top=0;left=0;bottom=0;right=0;collapsible=0;dropTarget=0;fillColor=none;points=[[0,0.5],[1,0.5]];portConstraint=eastwest;fontSize=16;" vertex="1" parent="qJbakIfHmFBiQNTWDLgG-56">
          <mxGeometry width="740" height="40" as="geometry" />
        </mxCell>
        <mxCell id="qJbakIfHmFBiQNTWDLgG-58" value="N" style="shape=partialRectangle;html=1;whiteSpace=wrap;connectable=0;strokeColor=inherit;overflow=hidden;fillColor=none;top=0;left=0;bottom=0;right=0;pointerEvents=1;fontSize=16;" vertex="1" parent="qJbakIfHmFBiQNTWDLgG-57">
          <mxGeometry width="230" height="40" as="geometry">
            <mxRectangle width="230" height="40" as="alternateBounds" />
          </mxGeometry>
        </mxCell>
        <mxCell id="qJbakIfHmFBiQNTWDLgG-59" value="key" style="shape=partialRectangle;html=1;whiteSpace=wrap;connectable=0;strokeColor=inherit;overflow=hidden;fillColor=none;top=0;left=0;bottom=0;right=0;pointerEvents=1;fontSize=16;" vertex="1" parent="qJbakIfHmFBiQNTWDLgG-57">
          <mxGeometry x="230" width="170" height="40" as="geometry">
            <mxRectangle width="170" height="40" as="alternateBounds" />
          </mxGeometry>
        </mxCell>
        <mxCell id="qJbakIfHmFBiQNTWDLgG-60" value="value" style="shape=partialRectangle;html=1;whiteSpace=wrap;connectable=0;strokeColor=inherit;overflow=hidden;fillColor=none;top=0;left=0;bottom=0;right=0;pointerEvents=1;fontSize=16;" vertex="1" parent="qJbakIfHmFBiQNTWDLgG-57">
          <mxGeometry x="400" width="170" height="40" as="geometry">
            <mxRectangle width="170" height="40" as="alternateBounds" />
          </mxGeometry>
        </mxCell>
        <mxCell id="qJbakIfHmFBiQNTWDLgG-65" value="..." style="shape=partialRectangle;html=1;whiteSpace=wrap;connectable=0;strokeColor=inherit;overflow=hidden;fillColor=none;top=0;left=0;bottom=0;right=0;pointerEvents=1;fontSize=16;" vertex="1" parent="qJbakIfHmFBiQNTWDLgG-57">
          <mxGeometry x="570" width="170" height="40" as="geometry">
            <mxRectangle width="170" height="40" as="alternateBounds" />
          </mxGeometry>
        </mxCell>
        <mxCell id="qJbakIfHmFBiQNTWDLgG-61" value="" style="shape=tableRow;horizontal=0;startSize=0;swimlaneHead=0;swimlaneBody=0;strokeColor=inherit;top=0;left=0;bottom=0;right=0;collapsible=0;dropTarget=0;fillColor=none;points=[[0,0.5],[1,0.5]];portConstraint=eastwest;fontSize=16;" vertex="1" parent="qJbakIfHmFBiQNTWDLgG-56">
          <mxGeometry y="40" width="740" height="40" as="geometry" />
        </mxCell>
        <mxCell id="qJbakIfHmFBiQNTWDLgG-62" value="writeInt(ArrayMap.size())" style="shape=partialRectangle;html=1;whiteSpace=wrap;connectable=0;strokeColor=inherit;overflow=hidden;fillColor=none;top=0;left=0;bottom=0;right=0;pointerEvents=1;fontSize=16;" vertex="1" parent="qJbakIfHmFBiQNTWDLgG-61">
          <mxGeometry width="230" height="40" as="geometry">
            <mxRectangle width="230" height="40" as="alternateBounds" />
          </mxGeometry>
        </mxCell>
        <mxCell id="qJbakIfHmFBiQNTWDLgG-63" value="writeString" style="shape=partialRectangle;html=1;whiteSpace=wrap;connectable=0;strokeColor=inherit;overflow=hidden;fillColor=none;top=0;left=0;bottom=0;right=0;pointerEvents=1;fontSize=16;" vertex="1" parent="qJbakIfHmFBiQNTWDLgG-61">
          <mxGeometry x="230" width="170" height="40" as="geometry">
            <mxRectangle width="170" height="40" as="alternateBounds" />
          </mxGeometry>
        </mxCell>
        <mxCell id="qJbakIfHmFBiQNTWDLgG-64" value="writeTypedObject" style="shape=partialRectangle;html=1;whiteSpace=wrap;connectable=0;strokeColor=inherit;overflow=hidden;fillColor=none;top=0;left=0;bottom=0;right=0;pointerEvents=1;fontSize=16;" vertex="1" parent="qJbakIfHmFBiQNTWDLgG-61">
          <mxGeometry x="400" width="170" height="40" as="geometry">
            <mxRectangle width="170" height="40" as="alternateBounds" />
          </mxGeometry>
        </mxCell>
        <mxCell id="qJbakIfHmFBiQNTWDLgG-66" value="..." style="shape=partialRectangle;html=1;whiteSpace=wrap;connectable=0;strokeColor=inherit;overflow=hidden;fillColor=none;top=0;left=0;bottom=0;right=0;pointerEvents=1;fontSize=16;" vertex="1" parent="qJbakIfHmFBiQNTWDLgG-61">
          <mxGeometry x="570" width="170" height="40" as="geometry">
            <mxRectangle width="170" height="40" as="alternateBounds" />
          </mxGeometry>
        </mxCell>
      </root>
    </mxGraphModel>
  </diagram>
</mxfile>
